<svg width="527" height="212" viewBox="0 0 527 212" fill="none" xmlns="http://www.w3.org/2000/svg">
<path opacity="0.3" d="M0.625 106.19L88.25 53.5898L175.875 106.19L88.25 158.79L0.625 106.19Z" fill="#F97F6B"/>
<path opacity="0.5" d="M175.875 106.19L263.5 53.5898L351.125 106.19L263.5 158.79L175.875 106.19Z" fill="#232323"/>
<path opacity="0.7" d="M351.125 106.19L438.75 53.5898L526.375 106.19L438.75 158.79L351.125 106.19Z" fill="#F97F6B"/>
<path opacity="0.1" d="M263.5 211.39C321.573 211.39 368.65 164.29 368.65 106.19C368.65 48.0896 321.573 0.98999 263.5 0.98999C205.427 0.98999 158.35 48.0896 158.35 106.19C158.35 164.29 205.427 211.39 263.5 211.39Z" stroke="#F5F5F5"/>
<path opacity="0.2" d="M263.5 176.323C302.215 176.323 333.6 144.924 333.6 106.19C333.6 67.4564 302.215 36.0566 263.5 36.0566C224.785 36.0566 193.4 67.4564 193.4 106.19C193.4 144.924 224.785 176.323 263.5 176.323Z" stroke="#F5F5F5"/>
<path opacity="0.8" d="M263.5 141.257C282.858 141.257 298.55 125.557 298.55 106.19C298.55 86.8232 282.858 71.1233 263.5 71.1233C244.142 71.1233 228.45 86.8232 228.45 106.19C228.45 125.557 244.142 141.257 263.5 141.257Z" fill="#F5F5F5"/>
<path opacity="0.6" d="M193.4 158.79L333.6 53.5898" stroke="#F5F5F5" stroke-width="2"/>
<path opacity="0.4" d="M158.35 123.723L368.65 88.6565" stroke="#F5F5F5" stroke-width="2"/>
<path opacity="0.4" d="M193.4 165.803C197.272 165.803 200.41 162.663 200.41 158.79C200.41 154.917 197.272 151.777 193.4 151.777C189.528 151.777 186.39 154.917 186.39 158.79C186.39 162.663 189.528 165.803 193.4 165.803Z" fill="#F5F5F5"/>
<path opacity="0.8" d="M333.6 60.6033C337.472 60.6033 340.61 57.4634 340.61 53.59C340.61 49.7166 337.472 46.5767 333.6 46.5767C329.729 46.5767 326.59 49.7166 326.59 53.59C326.59 57.4634 329.729 60.6033 333.6 60.6033Z" fill="#F5F5F5"/>
<path opacity="0.4" d="M158.35 130.737C162.222 130.737 165.36 127.597 165.36 123.723C165.36 119.85 162.222 116.71 158.35 116.71C154.478 116.71 151.34 119.85 151.34 123.723C151.34 127.597 154.478 130.737 158.35 130.737Z" fill="#F5F5F5"/>
<path opacity="0.8" d="M368.65 95.67C372.521 95.67 375.66 92.53 375.66 88.6566C375.66 84.7833 372.521 81.6433 368.65 81.6433C364.778 81.6433 361.64 84.7833 361.64 88.6566C361.64 92.53 364.778 95.67 368.65 95.67Z" fill="#F5F5F5"/>
<path opacity="0.6" d="M472.047 18.5232H405.452C404.485 18.5232 403.7 19.3082 403.7 20.2765C403.7 21.2449 404.485 22.0299 405.452 22.0299H472.047C473.015 22.0299 473.8 21.2449 473.8 20.2765C473.8 19.3082 473.015 18.5232 472.047 18.5232Z" fill="#F5F5F5"/>
<path opacity="0.4" d="M454.522 36.0566H405.452C404.485 36.0566 403.7 36.8416 403.7 37.81C403.7 38.7783 404.485 39.5633 405.452 39.5633H454.522C455.49 39.5633 456.275 38.7783 456.275 37.81C456.275 36.8416 455.49 36.0566 454.522 36.0566Z" fill="#F5F5F5"/>
<path opacity="0.2" d="M436.997 53.5898H405.452C404.485 53.5898 403.7 54.3748 403.7 55.3432C403.7 56.3115 404.485 57.0965 405.452 57.0965H436.997C437.965 57.0965 438.75 56.3115 438.75 55.3432C438.75 54.3748 437.965 53.5898 436.997 53.5898Z" fill="#F5F5F5"/>
</svg>
