<svg width="521" height="280" viewBox="0 0 521 280" fill="none" xmlns="http://www.w3.org/2000/svg">
<path d="M260.5 278.623C337.047 278.623 399.1 216.421 399.1 139.69C399.1 62.9592 337.047 0.756592 260.5 0.756592C183.953 0.756592 121.9 62.9592 121.9 139.69C121.9 216.421 183.953 278.623 260.5 278.623Z" stroke="#232323"/>
<path opacity="0.3" d="M260.5 209.157C298.773 209.157 329.8 178.055 329.8 139.69C329.8 101.325 298.773 70.2234 260.5 70.2234C222.227 70.2234 191.2 101.325 191.2 139.69C191.2 178.055 222.227 209.157 260.5 209.157Z" stroke="#F5F5F5"/>
<path opacity="0.7" d="M101.11 52.8567H4.09C2.17633 52.8567 0.625 54.4118 0.625 56.33C0.625 58.2483 2.17633 59.8034 4.09 59.8034H101.11C103.024 59.8034 104.575 58.2483 104.575 56.33C104.575 54.4118 103.024 52.8567 101.11 52.8567Z" fill="#F5F5F5"/>
<path opacity="0.5" d="M66.46 87.5898H4.09C2.17633 87.5898 0.625 89.1449 0.625 91.0632C0.625 92.9814 2.17633 94.5365 4.09 94.5365H66.46C68.3737 94.5365 69.925 92.9814 69.925 91.0632C69.925 89.1449 68.3737 87.5898 66.46 87.5898Z" fill="#F5F5F5"/>
<path opacity="0.3" d="M83.785 122.323H4.09C2.17633 122.323 0.625 123.878 0.625 125.797C0.625 127.715 2.17633 129.27 4.09 129.27H83.785C85.6987 129.27 87.25 127.715 87.25 125.797C87.25 123.878 85.6987 122.323 83.785 122.323Z" fill="#F5F5F5"/>
<path opacity="0.7" d="M516.91 52.8567H419.89C417.976 52.8567 416.425 54.4118 416.425 56.33C416.425 58.2483 417.976 59.8034 419.89 59.8034H516.91C518.824 59.8034 520.375 58.2483 520.375 56.33C520.375 54.4118 518.824 52.8567 516.91 52.8567Z" fill="#F5F5F5"/>
<path opacity="0.5" d="M482.26 87.5898H419.89C417.976 87.5898 416.425 89.1449 416.425 91.0632C416.425 92.9814 417.976 94.5365 419.89 94.5365H482.26C484.174 94.5365 485.725 92.9814 485.725 91.0632C485.725 89.1449 484.174 87.5898 482.26 87.5898Z" fill="#F5F5F5"/>
<path opacity="0.3" d="M499.585 122.323H419.89C417.976 122.323 416.425 123.878 416.425 125.797C416.425 127.715 417.976 129.27 419.89 129.27H499.585C501.499 129.27 503.05 127.715 503.05 125.797C503.05 123.878 501.499 122.323 499.585 122.323Z" fill="#F5F5F5"/>
<path d="M225.85 139.69H295.15ZM260.5 104.957V174.423Z" fill="black"/>
<path d="M225.85 139.69H295.15M260.5 104.957V174.423" stroke="#F5F5F5" stroke-width="2"/>
<path opacity="0.3" d="M121.9 87.5898C191.2 87.5898 191.2 139.69 225.85 139.69" stroke="#F5F5F5"/>
<path opacity="0.3" d="M295.15 139.69C329.8 139.69 329.8 87.5898 399.1 87.5898" stroke="#F5F5F5"/>
<path d="M260.5 146.636C264.327 146.636 267.43 143.526 267.43 139.69C267.43 135.853 264.327 132.743 260.5 132.743C256.673 132.743 253.57 135.853 253.57 139.69C253.57 143.526 256.673 146.636 260.5 146.636Z" fill="#F5F5F5"/>
<path d="M121.9 91.0634C123.814 91.0634 125.365 89.5083 125.365 87.59C125.365 85.6718 123.814 84.1167 121.9 84.1167C119.986 84.1167 118.435 85.6718 118.435 87.59C118.435 89.5083 119.986 91.0634 121.9 91.0634Z" fill="#F5F5F5"/>
<path d="M399.1 91.0634C401.014 91.0634 402.565 89.5083 402.565 87.59C402.565 85.6718 401.014 84.1167 399.1 84.1167C397.186 84.1167 395.635 85.6718 395.635 87.59C395.635 89.5083 397.186 91.0634 399.1 91.0634Z" fill="#F5F5F5"/>
</svg>
