<svg width="486" height="471" viewBox="0 0 486 471" fill="none" xmlns="http://www.w3.org/2000/svg">
<path d="M27.6409 442.549L442.359 27.8309" stroke="#333333"/>
<path d="M69.1127 456.373L456.183 69.3027" stroke="#333333" stroke-width="0.5"/>
<path d="M27.6409 387.253L387.063 27.8309" stroke="#333333" stroke-width="0.5"/>
<path d="M235 391.59C321.377 391.59 391.4 321.567 391.4 235.19C391.4 148.813 321.377 78.7899 235 78.7899C148.623 78.7899 78.6 148.813 78.6 235.19C78.6 321.567 148.623 391.59 235 391.59Z" fill="#222222" stroke="#2563EB" stroke-width="2"/>
<path d="M235 381.815C315.979 381.815 381.625 316.169 381.625 235.19C381.625 154.211 315.979 88.5649 235 88.5649C154.021 88.5649 88.375 154.211 88.375 235.19C88.375 316.169 154.021 381.815 235 381.815Z" fill="#2A2A2A" stroke="#2563EB"/>
<path d="M274.1 211.73H195.9C182.943 211.73 172.44 222.233 172.44 235.19C172.44 248.147 182.943 258.65 195.9 258.65H274.1C287.057 258.65 297.56 248.147 297.56 235.19C297.56 222.233 287.057 211.73 274.1 211.73Z" fill="#F97F6B"/>
<path d="M281.92 239.882C285.375 239.882 288.176 237.081 288.176 233.626C288.176 230.171 285.375 227.37 281.92 227.37C278.465 227.37 275.664 230.171 275.664 233.626C275.664 237.081 278.465 239.882 281.92 239.882Z" fill="#171717"/>
<path d="M188.08 238.318C190.671 238.318 192.772 236.217 192.772 233.626C192.772 231.035 190.671 228.934 188.08 228.934C185.489 228.934 183.388 231.035 183.388 233.626C183.388 236.217 185.489 238.318 188.08 238.318Z" fill="#171717"/>
<path d="M39.5 362.265C55.6957 362.265 68.825 349.136 68.825 332.94C68.825 316.744 55.6957 303.615 39.5 303.615C23.3042 303.615 10.175 316.744 10.175 332.94C10.175 349.136 23.3042 362.265 39.5 362.265Z" fill="#F97F6B"/>
<path d="M332.75 438.51C337.069 438.51 340.57 435.009 340.57 430.69C340.57 426.371 337.069 422.87 332.75 422.87C328.431 422.87 324.93 426.371 324.93 430.69C324.93 435.009 328.431 438.51 332.75 438.51Z" fill="#666666"/>
<path d="M391.4 84.6549C394.639 84.6549 397.265 82.0291 397.265 78.7899C397.265 75.5508 394.639 72.9249 391.4 72.9249C388.161 72.9249 385.535 75.5508 385.535 78.7899C385.535 82.0291 388.161 84.6549 391.4 84.6549Z" fill="#666666"/>
<path d="M137.25 39.6899L235 235.19L137.25 39.6899Z" fill="black"/>
<path d="M137.25 39.6899L235 235.19" stroke="#3D4447"/>
<path d="M430.5 137.44L235 235.19L430.5 137.44Z" fill="black"/>
<path d="M430.5 137.44L235 235.19" stroke="#3D4447"/>
<path d="M430.5 156.99C441.297 156.99 450.05 148.237 450.05 137.44C450.05 126.643 441.297 117.89 430.5 117.89C419.703 117.89 410.95 126.643 410.95 137.44C410.95 148.237 419.703 156.99 430.5 156.99Z" fill="#F97F6B"/>
<path d="M469.6 391.59L235 235.19L469.6 391.59Z" fill="black"/>
<path d="M469.6 391.59L235 235.19" stroke="#3D4447"/>
<path d="M469.6 407.23C478.238 407.23 485.24 400.228 485.24 391.59C485.24 382.952 478.238 375.95 469.6 375.95C460.962 375.95 453.96 382.952 453.96 391.59C453.96 400.228 460.962 407.23 469.6 407.23Z" fill="#F97F6B"/>
<path d="M235 238.318C237.591 238.318 239.692 236.217 239.692 233.626C239.692 231.035 237.591 228.934 235 228.934C232.409 228.934 230.308 231.035 230.308 233.626C230.308 236.217 232.409 238.318 235 238.318Z" fill="#171717"/>
<path d="M137.25 49.4649C142.649 49.4649 147.025 45.0885 147.025 39.6899C147.025 34.2913 142.649 29.9149 137.25 29.9149C131.851 29.9149 127.475 34.2913 127.475 39.6899C127.475 45.0885 131.851 49.4649 137.25 49.4649Z" fill="#F97F6B"/>
</svg>
