<svg width="492" height="489" viewBox="0 0 492 489" fill="none" xmlns="http://www.w3.org/2000/svg">
<path opacity="0.2" d="M246 456.19C361.98 456.19 456 362.17 456 246.19C456 130.21 361.98 36.1899 246 36.1899C130.02 36.1899 36 130.21 36 246.19C36 362.17 130.02 456.19 246 456.19Z" fill="#A7C6D9"/>
<path d="M366 364.19L446 444.19L366 364.19Z" fill="black"/>
<path d="M366 364.19L446 444.19" stroke="#2563EB" stroke-width="40" stroke-linecap="round"/>
<path d="M246 404.19C334.366 404.19 406 332.556 406 244.19C406 155.824 334.366 84.1899 246 84.1899C157.634 84.1899 86 155.824 86 244.19C86 332.556 157.634 404.19 246 404.19Z" fill="url(#paint0_linear_38_22)" stroke="white" stroke-width="4"/>
<path d="M246 354.19C306.751 354.19 356 304.941 356 244.19C356 183.439 306.751 134.19 246 134.19C185.249 134.19 136 183.439 136 244.19C136 304.941 185.249 354.19 246 354.19Z" fill="url(#paint1_linear_38_22)" stroke="white" stroke-width="4"/>
<path d="M246 304.19C279.137 304.19 306 277.327 306 244.19C306 211.053 279.137 184.19 246 184.19C212.863 184.19 186 211.053 186 244.19C186 277.327 212.863 304.19 246 304.19Z" fill="white"/>
<path d="M246 284.19C268.091 284.19 286 266.281 286 244.19C286 222.099 268.091 204.19 246 204.19C223.909 204.19 206 222.099 206 244.19C206 266.281 223.909 284.19 246 284.19Z" fill="#F97F6B"/>
<path d="M246 252.19C254.284 252.19 261 245.474 261 237.19C261 228.906 254.284 222.19 246 222.19C237.716 222.19 231 228.906 231 237.19C231 245.474 237.716 252.19 246 252.19Z" fill="#171717"/>
<path d="M226 257.19C239.333 270.523 252.667 270.523 266 257.19H226Z" fill="#171717"/>
<path d="M226 257.19C239.333 270.523 252.667 270.523 266 257.19" stroke="#171717" stroke-width="8"/>
<path d="M246 104.19V164.19V104.19ZM241 159.19L246 164.19L251 159.19" fill="black"/>
<path d="M246 104.19V164.19M246 164.19L241 159.19M246 164.19L251 159.19" stroke="white" stroke-width="3"/>
<path d="M344.99 145.2L302.57 187.62L344.99 145.2ZM297.57 182.62L302.57 187.62L307.57 192.62" fill="black"/>
<path d="M344.99 145.2L302.57 187.62M302.57 187.62L297.57 182.62M302.57 187.62L307.57 192.62" stroke="white" stroke-width="3"/>
<path d="M386 244.19H326H386ZM331 239.19L326 244.19L331 249.19" fill="black"/>
<path d="M386 244.19H326M326 244.19L331 239.19M326 244.19L331 249.19" stroke="white" stroke-width="3"/>
<path d="M344.99 343.18L302.57 300.76L344.99 343.18ZM297.57 295.76L302.57 300.76L307.57 305.76" fill="black"/>
<path d="M344.99 343.18L302.57 300.76M302.57 300.76L297.57 295.76M302.57 300.76L307.57 305.76" stroke="white" stroke-width="3"/>
<path d="M246 384.19V324.19V384.19ZM241 329.19L246 324.19L251 329.19" fill="black"/>
<path d="M246 384.19V324.19M246 324.19L241 329.19M246 324.19L251 329.19" stroke="white" stroke-width="3"/>
<path d="M147.01 343.18L189.43 300.76L147.01 343.18ZM184.43 295.76L189.43 300.76L194.43 305.76" fill="black"/>
<path d="M147.01 343.18L189.43 300.76M189.43 300.76L184.43 295.76M189.43 300.76L194.43 305.76" stroke="white" stroke-width="3"/>
<path d="M106 244.19H166H106ZM161 239.19L166 244.19L161 249.19" fill="black"/>
<path d="M106 244.19H166M166 244.19L161 239.19M166 244.19L161 249.19" stroke="white" stroke-width="3"/>
<path d="M147.01 145.2L189.43 187.62L147.01 145.2ZM184.43 182.62L189.43 187.62L194.43 192.62" fill="black"/>
<path d="M147.01 145.2L189.43 187.62M189.43 187.62L184.43 182.62M189.43 187.62L194.43 192.62" stroke="white" stroke-width="3"/>
<path d="M44 248.19C46.2091 248.19 48 246.399 48 244.19C48 241.981 46.2091 240.19 44 240.19C41.7909 240.19 40 241.981 40 244.19C40 246.399 41.7909 248.19 44 248.19Z" fill="#F97F6B"/>
<path d="M24 248.19C26.2091 248.19 28 246.399 28 244.19C28 241.981 26.2091 240.19 24 240.19C21.7909 240.19 20 241.981 20 244.19C20 246.399 21.7909 248.19 24 248.19Z" fill="#F97F6B"/>
<path d="M4 248.19C6.20914 248.19 8 246.399 8 244.19C8 241.981 6.20914 240.19 4 240.19C1.79086 240.19 0 241.981 0 244.19C0 246.399 1.79086 248.19 4 248.19Z" fill="#F97F6B"/>
<path d="M64 252.19C68.4183 252.19 72 248.608 72 244.19C72 239.772 68.4183 236.19 64 236.19C59.5817 236.19 56 239.772 56 244.19C56 248.608 59.5817 252.19 64 252.19Z" fill="#F97F6B"/>
<path d="M242 444.19C242 441.981 243.791 440.19 246 440.19C248.209 440.19 250 441.981 250 444.19C250 446.399 248.209 448.19 246 448.19C243.791 448.19 242 446.399 242 444.19Z" fill="#F97F6B"/>
<path d="M242 464.19C242 461.981 243.791 460.19 246 460.19C248.209 460.19 250 461.981 250 464.19C250 466.399 248.209 468.19 246 468.19C243.791 468.19 242 466.399 242 464.19Z" fill="#F97F6B"/>
<path d="M242 484.19C242 481.981 243.791 480.19 246 480.19C248.209 480.19 250 481.981 250 484.19C250 486.399 248.209 488.19 246 488.19C243.791 488.19 242 486.399 242 484.19Z" fill="#F97F6B"/>
<path d="M238 424.19C238 419.772 241.582 416.19 246 416.19C250.418 416.19 254 419.772 254 424.19C254 428.608 250.418 432.19 246 432.19C241.582 432.19 238 428.608 238 424.19Z" fill="#F97F6B"/>
<path d="M242 44.1899C242 46.3991 243.791 48.1899 246 48.1899C248.209 48.1899 250 46.3991 250 44.1899C250 41.9808 248.209 40.1899 246 40.1899C243.791 40.1899 242 41.9808 242 44.1899Z" fill="#F97F6B"/>
<path d="M242 24.1899C242 26.3991 243.791 28.1899 246 28.1899C248.209 28.1899 250 26.3991 250 24.1899C250 21.9808 248.209 20.1899 246 20.1899C243.791 20.1899 242 21.9808 242 24.1899Z" fill="#F97F6B"/>
<path d="M242 4.18994C242 6.39908 243.791 8.18994 246 8.18994C248.209 8.18994 250 6.39908 250 4.18994C250 1.9808 248.209 0.189941 246 0.189941C243.791 0.189941 242 1.9808 242 4.18994Z" fill="#F97F6B"/>
<path d="M238 64.1899C238 68.6082 241.582 72.1899 246 72.1899C250.418 72.1899 254 68.6082 254 64.1899C254 59.7717 250.418 56.1899 246 56.1899C241.582 56.1899 238 59.7717 238 64.1899Z" fill="#F97F6B"/>
<path d="M448 248.19C450.209 248.19 452 246.399 452 244.19C452 241.981 450.209 240.19 448 240.19C445.791 240.19 444 241.981 444 244.19C444 246.399 445.791 248.19 448 248.19Z" fill="#F97F6B"/>
<path d="M468 248.19C470.209 248.19 472 246.399 472 244.19C472 241.981 470.209 240.19 468 240.19C465.791 240.19 464 241.981 464 244.19C464 246.399 465.791 248.19 468 248.19Z" fill="#F97F6B"/>
<path d="M488 248.19C490.209 248.19 492 246.399 492 244.19C492 241.981 490.209 240.19 488 240.19C485.791 240.19 484 241.981 484 244.19C484 246.399 485.791 248.19 488 248.19Z" fill="#F97F6B"/>
<path d="M428 252.19C432.418 252.19 436 248.608 436 244.19C436 239.772 432.418 236.19 428 236.19C423.582 236.19 420 239.772 420 244.19C420 248.608 423.582 252.19 428 252.19Z" fill="#F97F6B"/>
<defs>
<linearGradient id="paint0_linear_38_22" x1="246" y1="84.1899" x2="246" y2="404.19" gradientUnits="userSpaceOnUse">
<stop stop-color="#3B82F6"/>
<stop offset="1" stop-color="#1D4ED8"/>
</linearGradient>
<linearGradient id="paint1_linear_38_22" x1="246" y1="134.19" x2="246" y2="354.19" gradientUnits="userSpaceOnUse">
<stop stop-color="#3B82F6"/>
<stop offset="1" stop-color="#1D4ED8"/>
</linearGradient>
</defs>
</svg>
