<svg width="746" height="909" viewBox="0 0 746 909" fill="none" xmlns="http://www.w3.org/2000/svg">
<path d="M746.5 1200.9C1158.31 1200.9 1492.15 867.061 1492.15 455.25C1492.15 43.439 1158.31 -290.4 746.5 -290.4C334.689 -290.4 0.850006 43.439 0.850006 455.25C0.850006 867.061 334.689 1200.9 746.5 1200.9Z" stroke="#F5F5F5" stroke-opacity="0.4"/>
<path d="M746.5 1035.2C1066.8 1035.2 1326.45 775.547 1326.45 455.25C1326.45 134.952 1066.8 -124.7 746.5 -124.7C426.203 -124.7 166.55 134.952 166.55 455.25C166.55 775.547 426.203 1035.2 746.5 1035.2Z" stroke="url(#paint0_linear_38_27)"/>
<path d="M746.5 869.5C975.284 869.5 1160.75 684.034 1160.75 455.25C1160.75 226.466 975.284 41 746.5 41C517.716 41 332.25 226.466 332.25 455.25C332.25 684.034 517.716 869.5 746.5 869.5Z" stroke="#F5F5F5" stroke-opacity="0.4"/>
<path d="M746.5 703.8C883.77 703.8 995.05 592.521 995.05 455.25C995.05 317.98 883.77 206.7 746.5 206.7C609.23 206.7 497.95 317.98 497.95 455.25C497.95 592.521 609.23 703.8 746.5 703.8Z" stroke="#1E40AF"/>
<path d="M746.5 620.95C838.014 620.95 912.2 546.763 912.2 455.25C912.2 363.736 838.014 289.55 746.5 289.55C654.986 289.55 580.8 363.736 580.8 455.25C580.8 546.763 654.986 620.95 746.5 620.95Z" stroke="#2563EB"/>
<path d="M746.5 538.1C792.257 538.1 829.35 501.007 829.35 455.25C829.35 409.493 792.257 372.4 746.5 372.4C700.743 372.4 663.65 409.493 663.65 455.25C663.65 501.007 700.743 538.1 746.5 538.1Z" fill="url(#paint1_radial_38_27)"/>
<defs>
<linearGradient id="paint0_linear_38_27" x1="166.55" y1="-124.7" x2="116157" y2="115865" gradientUnits="userSpaceOnUse">
<stop stop-color="#3B82F6"/>
<stop offset="1" stop-color="#2563EB"/>
</linearGradient>
<radialGradient id="paint1_radial_38_27" cx="0" cy="0" r="1" gradientUnits="userSpaceOnUse" gradientTransform="translate(8948.65 8657.4) scale(8285)">
<stop stop-color="#3B82F6"/>
<stop offset="0.8" stop-color="#1D4ED8"/>
</radialGradient>
</defs>
</svg>
